{"title":"50 Cent Ft. Prodigy, Kidd Kidd &amp; Styles P - Chase The Paper ","uid":10086531,"size":138129688,"categoryP":"video","categoryS":"music_videos","magnet":"?xt=urn:btih:a266c02383c0de65d05b63eee689196de8f6cfce&amp;dn=50+Cent+Ft.+Prodigy%2C+Kidd+Kidd+%26amp%3B+Styles+P+-+Chase+The+Paper+&amp;tr=udp%3A%2F%2Ftracker.openbittorrent.com%3A80&amp;tr=udp%3A%2F%2Fopen.demonii.com%3A1337&amp;tr=udp%3A%2F%2Ftracker.coppersurfer.tk%3A6969&amp;tr=udp%3A%2F%2Fexodus.desync.com%3A6969","seeders":3,"leechers":1,"uploader":"Sbyky","files":1,"time":1399108233,"description":"\n\nGeneral\nComplete name                            : 50 Cent Ft. Prodigy, Kidd Kidd &amp; Styles P - Chase The Paper [Explicit] 1080p [Sbyky].mp4\nFormat                                   : MPEG-4\nFormat profile                           : Base Media\nCodec ID                                 : isom\nFile size                                : 132 MiB\nDuration                                 : 4mn 19s\nOverall bit rate mode                    : Variable\nOverall bit rate                         : 4 252 Kbps\nEncoded date                             : UTC 2014-04-16 22:47:13\nTagged date                              : UTC 2014-04-16 22:47:13\n\nVideo\nID                                       : 1\nFormat                                   : AVC\nFormat/Info                              : Advanced Video Codec\nFormat profile                           : &lt;a class=&quot;__cf_email__&quot; href=&quot;/cdn-cgi/l/email-protection&quot; data-cfemail=&quot;b5fddcd2ddf5f9819b85&quot;&gt;[email&amp;#160;protected]&lt;/a&gt;&lt;script cf-hash='f9e31' type=&quot;text/javascript&quot;&gt;\n/* &lt;![CDATA[ */!function(){try{var t=&quot;currentScript&quot;in document?document.currentScript:function(){for(var t=document.getElementsByTagName(&quot;script&quot;),e=t.length;e--;)if(t[e].getAttribute(&quot;cf-hash&quot;))return t[e]}();if(t&amp;&amp;t.previousSibling){var e,r,n,i,c=t.previousSibling,a=c.getAttribute(&quot;data-cfemail&quot;);if(a){for(e=&quot;&quot;,r=parseInt(a.substr(0,2),16),n=2;a.length-n;n+=2)i=parseInt(a.substr(n,2),16)^r,e+=String.fromCharCode(i);e=document.createTextNode(e),c.parentNode.replaceChild(e,c)}}}catch(u){}}();/* ]]&gt; */&lt;/script&gt;\nFormat settings, CABAC                   : Yes\nFormat settings, ReFrames                : 2 frames\nCodec ID                                 : avc1\nCodec ID/Info                            : Advanced Video Coding\nDuration                                 : 4mn 19s\nBit rate                                 : 4 123 Kbps\nWidth                                    : 1 920 pixels\nHeight                                   : 1 080 pixels\nDisplay aspect ratio                     : 16:9\nFrame rate mode                          : Variable\nFrame rate                               : 23.976 fps\nMinimum frame rate                       : 23.974 fps\nMaximum frame rate                       : 24.516 fps\nColor space                              : YUV\nChroma subsampling                       : 4:2:0\nBit depth                                : 8 bits\nScan type                                : Progressive\nBits/(Pixel*Frame)                       : 0.083\nStream size                              : 128 MiB (97%)\nEncoded date                             : UTC 2014-04-16 22:47:13\nTagged date                              : UTC 2014-04-16 22:47:13\n\nAudio\nID                                       : 2\nFormat                                   : AAC\nFormat/Info                              : Advanced Audio Codec\nFormat profile                           : LC\nCodec ID                                 : 40\nDuration                                 : 4mn 19s\nBit rate mode                            : Variable\nBit rate                                 : 126 Kbps\nChannel(s)                               : 2 channels\nChannel positions                        : Front: L R\nSampling rate                            : 44.1 KHz\nCompression mode                         : Lossy\nStream size                              : 3.89 MiB (3%)\nEncoded date                             : UTC 2014-04-16 22:47:04\nTagged date                              : UTC 2014-04-16 22:47:04\n\nShared By Sbyky\n","torrent":{"xt":"urn:btih:a266c02383c0de65d05b63eee689196de8f6cfce","amp;dn":"50+Cent+Ft.+Prodigy%2C+Kidd+Kidd+%26amp%3B+Styles+P+-+Chase+The+Paper+","amp;tr":["udp%3A%2F%2Ftracker.openbittorrent.com%3A80","udp%3A%2F%2Fopen.demonii.com%3A1337","udp%3A%2F%2Ftracker.coppersurfer.tk%3A6969","udp%3A%2F%2Fexodus.desync.com%3A6969"],"infoHash":"a266c02383c0de65d05b63eee689196de8f6cfce","infoHashBuffer":{"type":"Buffer","data":[162,102,192,35,131,192,222,101,208,91,99,238,230,137,25,109,232,246,207,206]},"announce":[],"urlList":[]}}